<?xml version="1.0" encoding="UTF-8" standalone="no"?>
<!-- Created with Inkscape (http://www.inkscape.org/) -->

<svg
   xmlns:dc="http://purl.org/dc/elements/1.1/"
   xmlns:cc="http://creativecommons.org/ns#"
   xmlns:rdf="http://www.w3.org/1999/02/22-rdf-syntax-ns#"
   xmlns:svg="http://www.w3.org/2000/svg"
   xmlns="http://www.w3.org/2000/svg"
   xmlns:sodipodi="http://sodipodi.sourceforge.net/DTD/sodipodi-0.dtd"
   xmlns:inkscape="http://www.inkscape.org/namespaces/inkscape"
   width="76.635231mm"
   height="63.999043mm"
   viewBox="0 0 76.635231 63.999043"
   version="1.1"
   id="svg243"
   inkscape:version="0.92.5 (2060ec1f9f, 2020-04-08)"
   sodipodi:docname="jobrella-light.svg">
  <defs
     id="defs237" />
  <sodipodi:namedview
     id="base"
     pagecolor="#ffffff"
     bordercolor="#666666"
     borderopacity="1.0"
     inkscape:pageopacity="0.0"
     inkscape:pageshadow="2"
     inkscape:zoom="2.8"
     inkscape:cx="-45.765964"
     inkscape:cy="87.726281"
     inkscape:document-units="mm"
     inkscape:current-layer="g3874"
     showgrid="false"
     fit-margin-top="0"
     fit-margin-left="0"
     fit-margin-right="0"
     fit-margin-bottom="0"
     inkscape:window-width="2928"
     inkscape:window-height="1600"
     inkscape:window-x="144"
     inkscape:window-y="54"
     inkscape:window-maximized="1" />
  <metadata
     id="metadata240">
    <rdf:RDF>
      <cc:Work
         rdf:about="">
        <dc:format>image/svg+xml</dc:format>
        <dc:type
           rdf:resource="http://purl.org/dc/dcmitype/StillImage" />
        <dc:title />
      </cc:Work>
    </rdf:RDF>
  </metadata>
  <g
     inkscape:label="Layer 1"
     inkscape:groupmode="layer"
     id="layer1"
     transform="translate(-63.60356,-71.63379)">
    <g
       transform="matrix(0.27127319,0,0,0.27127319,63.60356,70.296142)"
       id="g3874">
      <g
         id="g3821" />
      <g
         id="g3823" />
      <g
         id="g3825" />
      <g
         id="g3827" />
      <g
         id="g3829" />
      <g
         id="g3831" />
      <g
         id="g3833" />
      <g
         id="g3835" />
      <g
         id="g3837" />
      <g
         id="g3839" />
      <g
         id="g3841" />
      <g
         id="g3843" />
      <g
         id="g3845" />
      <g
         id="g3847" />
      <g
         id="g3849" />
      <g
         aria-label="J"
         style="font-style:normal;font-variant:normal;font-weight:normal;font-stretch:normal;font-size:209.96925354px;line-height:1.25;font-family:sans-serif;-inkscape-font-specification:serif;letter-spacing:0px;word-spacing:0px;fill:#ffffff;fill-opacity:1;stroke:#ffffff;stroke-width:2.06941962"
         id="text64"
         transform="translate(1.9506781)" />
      <path
         id="path130"
         style="font-style:normal;font-variant:normal;font-weight:normal;font-stretch:normal;font-size:15.7693119px;line-height:1.25;font-family:serif;-inkscape-font-specification:serif;letter-spacing:0px;word-spacing:0px;fill:#ffffff;fill-opacity:1;stroke:#ffffff;stroke-width:0.30301824"
         d="m 164.94344,120.45221 c -0.29242,-0.27143 -0.53868,-2.85498 -0.54728,-5.74085 -0.0505,-16.936528 -6.65072,-42.130214 -15.56278,-59.402478 -4.05949,-7.867574 -11.48046,-18.423137 -16.8572,-23.977544 l -3.77693,-3.901718 3.55105,0.551541 c 39.2113,6.091553 74.47005,33.017339 89.24017,68.149395 2.73096,6.495864 6.42735,18.137064 6.42735,20.242064 0,0.44925 -1.63165,0.33248 -4.18712,-0.29879 -16.07316,-3.96975 -39.06417,-2.61848 -53.13601,3.12307 -4.90899,2.00304 -4.46303,1.89431 -5.15127,1.25511 z m -88.307632,-0.75388 c -14.894019,-7.10518 -43.012811,-8.1404 -60.6566,-2.23309 -1.96231,0.65695 -3.742799,1.0297 -3.956638,0.82828 -0.722662,-0.68063 1.551032,-9.68742 4.409381,-17.46674 C 19.953155,91.243458 26.462041,79.342548 32.655825,71.162881 41.991971,58.83328 58.067002,45.158396 71.610058,38.024947 83.934282,31.533453 100.87751,26.078355 113.77275,24.450217 l 4.34122,-0.547897 -5.81586,6.75683 c -17.838586,20.724777 -28.1215,47.125736 -31.025552,79.6567 l -0.99279,11.12103 z m 8.21773,1.71237 c 0.153719,-1.27411 0.458516,-5.93688 0.677386,-10.36178 C 86.294352,95.614373 91.892741,74.124735 98.873353,59.833545 103.62237,50.111008 109.13395,42.15658 116.06783,35.018099 l 6.11598,-6.296425 5.59355,5.833566 c 18.05312,18.827785 29.05876,47.295104 31.20182,80.70699 l 0.51444,8.02014 -5.11291,-2.60027 c -18.64931,-9.48471 -49.51744,-9.17242 -65.856154,0.66624 l -3.950469,2.37881 z M 117.53512,19.501227 c -0.0128,-0.138258 -0.0804,-0.254187 -0.0804,-0.396913 v -8.918865 c 0,-2.4616131 1.99336,-4.4594382 4.45943,-4.4594382 2.46608,0 4.45943,1.9978251 4.45943,4.4594382 v 8.918865 c 0,0.196217 -0.0891,0.365669 -0.11145,0.557428 55.05619,3.192961 100.18569,46.222047 106.28173,102.607128 0.17839,1.64555 -0.5708,3.25544 -1.94877,4.18299 -1.37796,0.9231 -3.14836,1.00785 -4.60214,0.22303 -6.70253,-3.61214 -16.45531,-5.68577 -26.76553,-5.68577 -19.56354,0 -34.17713,7.42494 -34.17713,14.06505 0,2.46161 -1.99336,4.45941 -4.45943,4.45941 -2.46607,0 -4.45944,-1.9978 -4.45944,-4.45941 0,-6.1273 -12.46411,-12.91007 -29.7578,-13.92235 h -8.91887 c -17.25355,1.03011 -29.673097,7.79952 -29.673097,13.91788 0,2.46161 -1.993357,4.45945 -4.459427,4.45945 -2.466081,0 -4.459438,-1.99784 -4.459438,-4.45945 0,-6.6401 -14.613567,-14.06506 -34.172658,-14.06506 -12.758448,0 -24.861359,3.30444 -30.832546,8.41494 -1.373491,1.17283 -3.308889,1.40473 -4.9231941,0.58417 C 7.3201464,129.16323 6.370283,127.45976 6.5085309,125.65813 11.155261,66.833673 59.718513,20.624999 117.53511,19.501227 Z m 81.69243,92.564503 c 8.48183,0 16.50882,1.2174 23.34514,3.49172 -8.20536,-45.579871 -44.38477,-80.144954 -89.03709,-86.160738 20.22354,20.201245 32.53158,53.562278 32.93293,90.441808 7.77725,-4.80726 19.34503,-7.77279 32.75902,-7.77279 z m -77.26865,0 c 15.17099,0 28.03648,3.76822 35.65765,9.73939 0,-0.0421 -0.0268,-0.0847 -0.0268,-0.13356 0,-37.900756 -13.92236,-72.983118 -35.67549,-90.70492 -21.75317,17.726259 -35.675541,52.808632 -35.675541,90.70492 0,0.0758 -0.03998,0.13842 -0.04468,0.21409 7.612259,-6.0113 20.522331,-9.81965 35.764681,-9.81965 z m -77.268656,0 c 13.36493,0 24.897029,2.94322 32.674281,7.71924 C 77.779269,82.530884 90.35933,48.897823 110.96193,28.776846 63.620554,32.857232 24.315079,69.72785 16.484315,117.43488 c 7.639015,-3.43374 17.547872,-5.36915 28.205929,-5.36915 z m 85.606656,85.84178 q 0,9.65859 -2.09969,17.42745 -1.88973,7.55889 -6.29908,13.01809 -4.19939,5.4592 -11.33834,8.39877 -6.92899,2.93957 -17.007514,2.93957 -7.978831,0 -15.327755,-2.51963 -7.348924,-2.30966 -13.228063,-6.71901 l 6.299077,-14.90782 q 3.569478,2.7296 9.448617,5.24923 6.089108,2.30966 11.758278,2.30966 4.409354,0 7.76886,-1.04984 3.56948,-1.04985 6.08911,-3.77945 2.51963,-2.93957 3.77945,-7.76886 1.25981,-5.03926 1.25981,-12.59816 V 91.033162 h 18.89724 z" />
      <g
         transform="matrix(3.6863208,0,0,3.6863208,-239.19415,-257.05597)"
         aria-label="obrella"
         style="font-style:normal;font-variant:normal;font-weight:normal;font-stretch:normal;font-size:15.7693119px;line-height:1.25;font-family:serif;-inkscape-font-specification:serif;letter-spacing:0px;word-spacing:0px;fill:#800000;fill-opacity:1;stroke:none;stroke-width:0.39423284"
         id="text3878">
        <path
           inkscape:connector-curvature="0"
           d="m 106.85528,129.64609 q 0,0.9777 -0.17347,1.78193 -0.17346,0.78847 -0.53615,1.35616 -0.34693,0.5677 -0.89885,0.88308 -0.53616,0.31539 -1.27732,0.31539 -0.74116,0 -1.29308,-0.31539 -0.55193,-0.31538 -0.91462,-0.88308 -0.34693,-0.56769 -0.52039,-1.35616 -0.17346,-0.80423 -0.17346,-1.78193 0,-0.96193 0.17346,-1.76616 0.17346,-0.80424 0.52039,-1.37193 0.36269,-0.58347 0.91462,-0.89885 0.55192,-0.31539 1.29308,-0.31539 0.74116,0 1.27732,0.31539 0.55192,0.31538 0.89885,0.89885 0.36269,0.56769 0.53615,1.37193 0.17347,0.80423 0.17347,1.76616 z m -1.41924,0 q 0,-0.69385 -0.0789,-1.26155 -0.0788,-0.58346 -0.25231,-0.99346 -0.17346,-0.42577 -0.45731,-0.64654 -0.28384,-0.23654 -0.67808,-0.23654 -0.41,0 -0.69385,0.23654 -0.26808,0.22077 -0.45731,0.64654 -0.17346,0.41 -0.25231,0.99346 -0.0788,0.5677 -0.0788,1.26155 0,0.69385 0.0788,1.27731 0.0789,0.5677 0.25231,0.9777 0.18923,0.41 0.45731,0.64654 0.28385,0.22077 0.69385,0.22077 0.39424,0 0.67808,-0.22077 0.28385,-0.23654 0.45731,-0.64654 0.17347,-0.41 0.25231,-0.9777 0.0789,-0.58346 0.0789,-1.27731 z"
           style="font-style:normal;font-variant:normal;font-weight:normal;font-stretch:normal;font-family:'Ubuntu Condensed';-inkscape-font-specification:'Ubuntu Condensed, ';fill:#800000;stroke-width:0.39423284"
           id="path31" />
        <path
           inkscape:connector-curvature="0"
           d="m 110.18259,132.6738 q 0.22077,0.0631 0.42577,0.0946 0.205,0.0158 0.37847,0.0158 0.91462,0 1.35616,-0.72539 0.45731,-0.74115 0.45731,-2.44424 0,-0.88308 -0.11039,-1.48231 -0.11038,-0.59924 -0.33115,-0.96193 -0.20501,-0.3627 -0.50462,-0.52039 -0.29962,-0.15769 -0.69385,-0.15769 -0.52039,0 -0.9777,0.25231 z m 0,-7.11196 q 0.25231,-0.12616 0.50462,-0.18923 0.26808,-0.0788 0.63077,-0.0788 0.7727,0 1.32462,0.31539 0.55193,0.29961 0.89885,0.86731 0.34693,0.55192 0.50462,1.35616 0.17346,0.78846 0.17346,1.78193 0,2.19193 -0.78846,3.28002 -0.7727,1.08808 -2.44424,1.08808 -0.58347,0 -1.15116,-0.12615 -0.5677,-0.11039 -1.00924,-0.29962 V 121.7772 l 1.35616,-0.23654 z"
           style="font-style:normal;font-variant:normal;font-weight:normal;font-stretch:normal;font-family:'Ubuntu Condensed';-inkscape-font-specification:'Ubuntu Condensed, ';fill:#800000;stroke-width:0.39423284"
           id="path33" />
        <path
           inkscape:connector-curvature="0"
           d="m 119.78609,126.72877 q -0.50462,-0.22077 -1.13539,-0.22077 -0.58347,0 -1.08809,0.205 v 7.06465 h -1.35616 v -7.9162 q 0.45731,-0.22077 1.04078,-0.36269 0.59923,-0.15769 1.30885,-0.15769 0.37846,0 0.75693,0.0473 0.37846,0.0473 0.70962,0.17347 z"
           style="font-style:normal;font-variant:normal;font-weight:normal;font-stretch:normal;font-family:'Ubuntu Condensed';-inkscape-font-specification:'Ubuntu Condensed, ';fill:#800000;stroke-width:0.39423284"
           id="path35" />
        <path
           inkscape:connector-curvature="0"
           d="m 122.15147,130.04032 q 0.0158,0.59924 0.11038,1.10385 0.0946,0.48885 0.29962,0.86732 0.22077,0.36269 0.56769,0.56769 0.3627,0.205 0.91462,0.205 0.45731,0 0.83578,-0.12615 0.39423,-0.14193 0.56769,-0.23654 l 0.25231,1.08808 q -0.205,0.14192 -0.69385,0.29962 -0.47308,0.17346 -1.13539,0.17346 -0.86731,0 -1.46655,-0.31539 -0.58346,-0.31538 -0.96192,-0.88308 -0.3627,-0.56769 -0.52039,-1.35616 -0.15769,-0.78846 -0.15769,-1.73462 0,-2.28655 0.75692,-3.3431 0.75693,-1.05654 2.00271,-1.05654 1.40346,0 1.98693,1.05654 0.58346,1.05655 0.58346,2.96463 0,0.17347 0,0.3627 0,0.17346 -0.0158,0.36269 z m 1.37193,-3.5954 q -0.67808,0 -0.99347,0.67808 -0.29962,0.67808 -0.3627,1.81347 h 2.50733 q 0,-1.15116 -0.23654,-1.81347 -0.23654,-0.67808 -0.91462,-0.67808 z"
           style="font-style:normal;font-variant:normal;font-weight:normal;font-stretch:normal;font-family:'Ubuntu Condensed';-inkscape-font-specification:'Ubuntu Condensed, ';fill:#800000;stroke-width:0.39423284"
           id="path37" />
        <path
           inkscape:connector-curvature="0"
           d="m 130.24111,133.93534 q -1.16693,-0.0315 -1.67155,-0.56769 -0.50462,-0.55193 -0.50462,-1.73463 v -9.85582 l 1.35616,-0.23654 v 10.1239 q 0,0.55193 0.22077,0.80424 0.22077,0.23654 0.7727,0.33115 z"
           style="font-style:normal;font-variant:normal;font-weight:normal;font-stretch:normal;font-family:'Ubuntu Condensed';-inkscape-font-specification:'Ubuntu Condensed, ';fill:#800000;stroke-width:0.39423284"
           id="path39" />
        <path
           inkscape:connector-curvature="0"
           d="m 134.07302,133.93534 q -1.16693,-0.0315 -1.67155,-0.56769 -0.50462,-0.55193 -0.50462,-1.73463 v -9.85582 l 1.35617,-0.23654 v 10.1239 q 0,0.55193 0.22077,0.80424 0.22077,0.23654 0.77269,0.33115 z"
           style="font-style:normal;font-variant:normal;font-weight:normal;font-stretch:normal;font-family:'Ubuntu Condensed';-inkscape-font-specification:'Ubuntu Condensed, ';fill:#800000;stroke-width:0.39423284"
           id="path41" />
        <path
           inkscape:connector-curvature="0"
           d="m 135.88646,125.67222 q 0.41,-0.17346 0.86731,-0.26808 0.45731,-0.11038 0.99347,-0.11038 1.10385,0 1.7977,0.69385 0.69385,0.67808 0.69385,2.12886 v 5.48772 q -0.56769,0.15769 -1.16693,0.25231 -0.58346,0.0946 -1.15116,0.0946 -0.56769,0 -1.07231,-0.14192 -0.48885,-0.14193 -0.86731,-0.45731 -0.3627,-0.31539 -0.58347,-0.78847 -0.22077,-0.48885 -0.22077,-1.1827 0,-0.64654 0.18923,-1.11962 0.205,-0.48885 0.55193,-0.80423 0.34692,-0.33116 0.82,-0.48885 0.47308,-0.17346 1.02501,-0.17346 0.52039,0 1.15116,0.12615 v -0.75693 q 0,-0.91462 -0.3627,-1.27731 -0.34692,-0.36269 -1.00923,-0.36269 -0.3627,0 -0.69385,0.0788 -0.31539,0.0631 -0.67808,0.22077 z m 0.64654,5.69272 q 0,0.72539 0.37847,1.07232 0.37846,0.34692 1.07231,0.34692 0.42577,0 0.93039,-0.11038 v -2.63348 q -0.47308,-0.12615 -0.93039,-0.12615 -0.29962,0 -0.5677,0.0788 -0.26807,0.0631 -0.47308,0.23654 -0.18923,0.1577 -0.29961,0.44154 -0.11039,0.26808 -0.11039,0.69385 z"
           style="font-style:normal;font-variant:normal;font-weight:normal;font-stretch:normal;font-family:'Ubuntu Condensed';-inkscape-font-specification:'Ubuntu Condensed, ';fill:#800000;stroke-width:0.39423284"
           id="path43" />
      </g>
    </g>
  </g>
</svg>
